<svg width="960" height="73" viewBox="0 0 960 73" fill="none" xmlns="http://www.w3.org/2000/svg">
<path d="M0 8.00002L22.8 6.70004C45.7 5.30004 91.3 2.70001 137 7.80001C182.7 13 228.3 26 274 33.2C319.7 40.3 365.3 41.7 411.2 34C457 26.3 503 9.70004 548.8 3.70004C594.7 -2.29996 640.3 2.30002 686 9.00002C731.7 15.7 777.3 24.3 823 24.3C868.7 24.3 914.3 15.7 937.2 11.3L960 7.00002V74H937.2C914.3 74 868.7 74 823 74C777.3 74 731.7 74 686 74C640.3 74 594.7 74 548.8 74C503 74 457 74 411.2 74C365.3 74 319.7 74 274 74C228.3 74 182.7 74 137 74C91.3 74 45.7 74 22.8 74H0V8.00002Z" fill="#0066FF"/>
</svg>
